<svg width="369" height="165" viewBox="0 0 369 165" fill="none" xmlns="http://www.w3.org/2000/svg"><g clip-path="url(#clip0_877_4278)"><path d="M278.9 104.1c4.6 0 8.1-1.3 10-3l-1-7.2c-1.1.8-3.4 1.6-5.5 1.6-3.2 0-5.2-2.6-5.2-7.6 0-3.9 1.3-9.1 3.2-12.5 2.1-3.7 4.9-5.4 7.9-5.4 1.9 0 3.4.7 4.2 1.3l3.7-6.1c-1.3-1.3-5.2-3-9.7-3-5.8 0-11.5 2.8-15.5 8.5-3.4 4.8-5.6 11.9-5.6 17.8.1 9.6 5.7 15.6 13.5 15.6zm-38.7-8.2c-3 0-5.5-.9-6.7-1.9l-4.3 7c2.2 1.6 6.7 3 11.2 3 12 0 18.2-7.3 18.2-15 0-9.1-11.4-8.5-11.4-14.1 0-3 2.5-5.2 5.8-5.2 2.4 0 4.6.8 5.8 1.7l4-6.2c-2.8-1.9-6.4-3-10.9-3-10.3 0-16.1 7.1-16.1 14.1 0 9.3 10.7 8.3 10.7 13.9-.2 3-2.6 5.7-6.3 5.7zm71.8 8.2c7 0 13.1-1.2 16.9-3l7.9-38.1h-11.7l-6.7 32.4c-1.3.5-2.8.8-4.9.8-3.6 0-4.7-1.6-4.7-3.7 0-.6.1-1.3.3-1.9l5.7-27.5h-11.7l-5.6 26.7c-.3 1.4-.4 2.8-.4 4 .1 7 5 10.3 14.9 10.3zm-90-.8l8.3-40.3h-11.6l-8.2 40.3H222zm124.6-7.4c-3 0-5.5-.9-6.7-1.9l-4.3 7c2.2 1.6 6.7 3 11.2 3 12 0 18.2-7.3 18.2-15 0-9.1-11.4-8.5-11.4-14.1 0-3 2.5-5.2 5.8-5.2 2.4 0 4.6.8 5.8 1.7l4-6.2c-2.8-1.9-6.3-3-10.9-3-10.3 0-16.1 7.1-16.1 14.1 0 9.3 10.7 8.3 10.7 13.9-.2 3-2.6 5.7-6.3 5.7zM64.6 27c2.7-9.6 14.7-14 22.3-14h10.9l2.6-13H86.9c-14 0-30.5 8.1-34.8 23.5-1 3.6-2.8 11.8-4.9 22.1H35.7l-2.5 12.1h11.5c-4 19.7-8.7 43.3-12 59.4h-3.6c-9.8 0-17 3.4-21.8 9.3-4.5 5.6-7.3 14-7.3 21.3 0 10.7 6.8 17.2 18.9 17.2 8.7 0 18-4.1 21.1-19.2 1.5-7.5 1.5-7.3 4.3-20.9h319.8l1.6-7.7H45.8C51.5 88.9 61.7 37.4 64.6 27zM27.3 143.3c-1.7 8.3-3.1 13-8 13-3.6 0-6.2-3.2-6.2-8.8 0-5 1.6-11.6 4-16 2.5-4.4 5.8-6.8 9.8-6.8H31c-2.3 11.4-3.2 15.7-3.7 18.6zM194 104.1c4.6 0 8.1-1.3 10-3l-1-7.2c-1.1.8-3.4 1.6-5.5 1.6-3.2 0-5.2-2.6-5.2-7.6 0-3.9 1.3-9.1 3.2-12.5 2.1-3.7 4.9-5.4 7.9-5.4 1.9 0 3.4.7 4.2 1.3l3.7-6.1c-1.3-1.3-5.2-3-9.7-3-5.8 0-11.5 2.8-15.5 8.5-3.4 4.8-5.6 11.9-5.6 17.8 0 9.6 5.7 15.6 13.5 15.6zM94 89c0 9.3 6 15 16.6 15 7 0 12-1.3 15.6-3l7.4-35.8c-2.9-1.7-8.3-3-14.1-3-8.6 0-14.9 3-19.1 8.1-4 5-6.4 12.4-6.4 18.7zm15-14c2.2-3.9 5.1-6 8.6-6 1.7 0 2.8.4 3.4.7L115.7 96c-.9.4-2.2.7-3.9.7-4.3 0-6.3-2.8-6.3-7.7 0-4.4 1.4-10.2 3.5-14zm-35.5-9.7l-7.9 38h11.7l6.8-33c1.9-.8 4.9-.7 7.7.3l3.8-8.1c-1.6-.2-2.8-.2-4.8-.2-7.3 0-13.1 1.2-17.3 3zm79.8 5.1c1.4-.4 3.2-.8 5.1-.8 3.7 0 5.1 1.7 5.1 4 0 .5-.1 1-.2 1.6l-5.8 28.2h11.6l5.8-27.7c.2-1.1.4-2.2.4-3.2 0-6.1-4.3-10.2-15.2-10.2-6.9 0-13 1.2-17.3 3l-7.9 38h11.7l6.7-32.9z" fill="#E30613"/><path d="M56 147.4c0-6.2 4.7-11.4 11.3-11.4 3.8 0 6.2 1.1 8.4 3l-2.4 2.9c-1.7-1.4-3.4-2.4-6.2-2.4-4 0-7.1 3.5-7.1 7.8v.1c0 4.5 3 7.8 7.5 7.8 2.1 0 4-.7 5.3-1.7v-4.1h-5.6V146h9.4v9.2c-2.2 1.9-5.3 3.4-9.2 3.4-6.9.1-11.4-4.7-11.4-11.2zm35.6 11v-2c-1.1 1.4-2.9 2.4-5.4 2.4-3.1 0-5.9-1.8-5.9-5.1v-.1c0-3.7 2.9-5.4 6.7-5.4 2 0 3.3.3 4.6.7v-.3c0-2.3-1.4-3.5-4.1-3.5-1.9 0-3.2.4-4.7 1l-1-3c1.8-.8 3.6-1.4 6.3-1.4 4.9 0 7.3 2.6 7.3 7v9.8h-3.8v-.1zm.1-7c-1-.4-2.3-.7-3.8-.7-2.4 0-3.8 1-3.8 2.6v.1c0 1.6 1.4 2.4 3.2 2.4 2.5 0 4.4-1.4 4.4-3.5v-.9zm6.8 4.8l1.7-2.6c1.8 1.3 3.7 2 5.4 2 1.6 0 2.6-.7 2.6-1.8v-.1c0-1.3-1.8-1.7-3.7-2.3-2.4-.7-5.2-1.7-5.2-4.9v-.1c0-3.1 2.6-5.1 5.9-5.1 2.1 0 4.3.7 6.1 1.9l-1.5 2.7c-1.6-1-3.3-1.6-4.7-1.6-1.5 0-2.3.7-2.3 1.7v.1c0 1.2 1.8 1.7 3.7 2.3 2.4.8 5.1 1.9 5.1 4.8v.1c0 3.5-2.7 5.2-6.2 5.2-2.2.2-4.8-.7-6.9-2.3zm17.5-2.4v-8.7h-2.1v-3.3h2.1v-4.6h3.8v4.6h4.5v3.3h-4.5v8.1c0 1.5.8 2.1 2 2.1.8 0 1.6-.2 2.4-.6v3.1c-.9.5-2 .8-3.4.8-2.8.1-4.8-1.2-4.8-4.8zm12.1-18.3h3.8v8.9c1.1-1.6 2.6-2.9 5.2-2.9 3.7 0 5.9 2.5 5.9 6.4v10.5h-3.8V149c0-2.6-1.3-4-3.5-4s-3.7 1.5-3.7 4.1v9.4h-3.8v-23h-.1zm18.7 16.8v-10.5h3.8v9.4c0 2.6 1.3 4 3.5 4s3.7-1.5 3.7-4.1v-9.4h3.8v16.6h-3.8v-2.6c-1.1 1.6-2.6 2.9-5.2 2.9-3.7.1-5.8-2.4-5.8-6.3zm19.7-16.7h4.1v3.6h-4.1v-3.6zm.1 6.2h3.8v16.6h-3.8v-16.6zm7.4 14.4l1.7-2.6c1.8 1.3 3.7 2 5.4 2 1.6 0 2.6-.7 2.6-1.8v-.1c0-1.3-1.8-1.7-3.7-2.3-2.4-.7-5.2-1.7-5.2-4.9v-.1c0-3.1 2.6-5.1 5.9-5.1 2.1 0 4.3.7 6.1 1.9l-1.5 2.7c-1.6-1-3.3-1.6-4.7-1.6-1.5 0-2.3.7-2.3 1.7v.1c0 1.2 1.8 1.7 3.7 2.3 2.4.8 5.1 1.9 5.1 4.8v.1c0 3.5-2.7 5.2-6.1 5.2-2.3.2-4.9-.7-7-2.3zm39.2-.4c-1.9 1.8-4.1 2.9-6.7 2.9-4.1 0-7.2-2.5-7.2-6.3v-.1c0-2.8 1.7-4.9 4.7-6.2-1.3-1.6-1.8-3-1.8-4.6v-.1c0-3 2.4-5.5 6.3-5.5 3.5 0 5.8 2.4 5.8 5.3v.1c0 2.9-1.9 4.6-4.8 5.7l3.8 3.8c.8-1.3 1.6-2.7 2.4-4.2l2.9 1.5c-.9 1.8-1.9 3.5-3 5l3.5 3.5-2.9 2-3-2.8zm-2.2-2.2l-4.9-5c-2 .9-2.9 2.2-2.9 3.6v.1c0 1.9 1.5 3.2 3.7 3.2 1.5 0 2.9-.7 4.1-1.9zm-.1-12c0-1.5-1-2.5-2.5-2.5-1.6 0-2.6 1.1-2.6 2.6v.1c0 1.1.4 1.9 1.7 3.3 2.2-.9 3.4-1.9 3.4-3.5zm18-5.2h4.3l6.6 16.9 6.6-16.9h4.2l-9.1 22.1H238l-9.1-22.1zm24.9-.9h3.8v22.9h-3.8v-22.9zm8.8.1h4.1v3.6h-4.1v-3.6zm.1 6.2h3.8v16.6h-3.8v-16.6zm7.9 8.3c0-4.8 3.4-8.7 8.1-8.7 5.3 0 7.9 4.1 7.9 8.9 0 .3 0 .7-.1 1.1h-12.2c.4 2.7 2.3 4.2 4.8 4.2 1.9 0 3.2-.7 4.5-2l2.2 2c-1.6 1.9-3.7 3.1-6.8 3.1-4.7 0-8.4-3.4-8.4-8.6zm12.2-1.2c-.3-2.4-1.7-4.4-4.2-4.4-2.3 0-4 1.8-4.3 4.4h8.5zm7.2 4.9v-8.7h-2.1v-3.3h2.1v-4.6h3.8v4.6h4.5v3.3h-4.5v8.1c0 1.5.8 2.1 2 2.1.8 0 1.6-.2 2.4-.6v3.1c-.9.5-2 .8-3.4.8-2.9.1-4.8-1.2-4.8-4.8zm12.3-18.3h3.8v22.9h-3.8v-22.9zm18.2 22.9v-2c-1.1 1.4-2.9 2.4-5.4 2.4-3.1 0-5.9-1.8-5.9-5.1v-.1c0-3.7 2.9-5.4 6.7-5.4 2 0 3.3.3 4.6.7v-.3c0-2.3-1.4-3.5-4.1-3.5-1.9 0-3.2.4-4.7 1l-1-3c1.8-.8 3.6-1.4 6.3-1.4 4.9 0 7.3 2.6 7.3 7v9.8h-3.8v-.1zm.1-7c-1-.4-2.3-.7-3.8-.7-2.4 0-3.8 1-3.8 2.6v.1c0 1.6 1.4 2.4 3.2 2.4 2.5 0 4.4-1.4 4.4-3.5v-.9zm8.2-9.6h3.8v2.6c1.1-1.6 2.6-2.9 5.2-2.9 3.7 0 5.9 2.5 5.9 6.4v10.5h-3.8V149c0-2.6-1.3-4-3.5-4s-3.7 1.5-3.7 4.1v9.4h-3.8v-16.7h-.1zm18.6 8.3c0-5.6 3.7-8.7 7.7-8.7 2.7 0 4.5 1.4 5.7 2.9v-8.9h3.8v22.9h-3.8v-2.8c-1.2 1.7-3 3.1-5.7 3.1-3.9.1-7.7-3-7.7-8.5zm13.4 0c0-3.3-2.3-5.4-4.8-5.4-2.6 0-4.8 2-4.8 5.3v.1c0 3.2 2.2 5.3 4.8 5.3 2.6 0 4.8-2.1 4.8-5.3z" fill="#1B4379"/><path d="M60.4 45.5c-.8 3.7-1.6 7.8-2.5 12.1h11.6l2.4-12.1H60.4zm171.1 12.2h-11.6l2.5-12.2h11.5l-2.4 12.2z" fill="#65B32E"/><path opacity=".2" d="M31.1 124.7h-4l1.5-7.6h4.1l-1.6 7.6z" fill="url(#paint0_linear_877_4278)"/><path opacity=".2" d="M44.7 57.7h-4.5l2.3-12.2h4.7l-2.5 12.2z" fill="url(#paint1_linear_877_4278)"/><path opacity=".2" d="M44.3 124.7l4 .1 1.6-7.7h-4.1l-1.5 7.6z" fill="url(#paint2_linear_877_4278)"/><path opacity=".2" d="M57.9 57.7h4.5L65 45.5h-4.6l-2.5 12.2z" fill="url(#paint3_linear_877_4278)"/></g><defs><linearGradient id="paint0_linear_877_4278" x1="27.902" y1="120.558" x2="31.835" y2="121.208" gradientUnits="userSpaceOnUse"><stop stop-color="#fff"/><stop offset="1" stop-color="#1B4379"/></linearGradient><linearGradient id="paint1_linear_877_4278" x1="41.378" y1="51.207" x2="45.911" y2="51.955" gradientUnits="userSpaceOnUse"><stop stop-color="#fff"/><stop offset="1" stop-color="#1B4379"/></linearGradient><linearGradient id="paint2_linear_877_4278" x1="48.625" y1="121.085" x2="45.093" y2="120.639" gradientUnits="userSpaceOnUse"><stop stop-color="#fff"/><stop offset="1" stop-color="#1B4379"/></linearGradient><linearGradient id="paint3_linear_877_4278" x1="63.391" y1="51.974" x2="59.278" y2="51.169" gradientUnits="userSpaceOnUse"><stop stop-color="#fff"/><stop offset="1" stop-color="#1B4379"/></linearGradient><clipPath id="clip0_877_4278"><path fill="#fff" d="M0 0h369v164.8H0z"/></clipPath></defs></svg>