<svg xmlns="http://www.w3.org/2000/svg" width="119.837" height="119.537" viewBox="0 0 119.837 119.537">
  <g id="Group_14019" data-name="Group 14019" transform="translate(-267 -36.5)">
    <path id="Path_2" data-name="Path 2" d="M122.546,54.225c-1.45-3.162-4.418-7.179-8.38-11.39,1.891-13.323-.9-24.134-8.7-29.173C92.407,5.212,29.035-5.143,10.2,23.989c-18.542,28.69,12,76.833,32.445,95.072,12.7,11.335,35.552,2.223,50.642-8.809,23.057-16.844,35.911-41.461,29.256-56.027" transform="translate(262.539 31.768)" fill="#fff"/>
    <path id="Path_3" data-name="Path 3" d="M109.931,44.593c-1.394-3.037-4.542-7.221-8.822-11.653C99.314,43.916,94.316,56.646,86.322,69c-17.286,26.757-41.958,41.571-55.1,33.08,6.047,13.254,28.579,11.128,50.3-4.736,21.745-15.877,34.461-39.487,28.414-52.755" transform="translate(272.725 42.505)" fill="#ff0078"/>
    <path id="Path_4" data-name="Path 4" d="M78.337,47.048c-4.791,0-5.785,3.714-5.785,8.049s.994,8.035,5.785,8.035,5.785-3.714,5.785-8.035-.994-8.049-5.785-8.049M44.166,19.325c-5.039,3.686-8.684,9.789-11.252,17.12a4.313,4.313,0,0,1-1.974,8.16,3.178,3.178,0,0,1-.359-.041c-.3,1.339-.566,2.706-.815,4.073h4.915V51.3c0,4.46-2.043,6.765-3.852,8.822-1.367,1.546-2.554,2.9-2.554,4.86,0,2.458,1.822,3.811,5.15,3.811a21.076,21.076,0,0,0,6.558-1.45l1.035,5.55a32.3,32.3,0,0,1-9.333,1.767,18.545,18.545,0,0,1-3.935-.428c.1,15.3,2.264,29.049,4.8,34.585,13.144,8.491,37.816-6.323,55.1-33.067,7.98-12.357,12.992-25.086,14.787-36.063C88.057,24.833,60.9,7.106,44.166,19.325M62.418,46.7c-.953.939-2.527.911-4.694.856l-1.974-.028V68.572H48.128V47.531h-7.11V41.456H63.7c-.041,2.775-.428,4.418-1.284,5.246M78.337,69.221c-9.085,0-13.5-4.639-13.5-14.207,0-9.306,4.667-14.221,13.5-14.221,9.085,0,13.489,4.653,13.489,14.221.014,9.306-4.639,14.207-13.489,14.207" transform="translate(271.404 35.769)" fill="#0075aa"/>
    <path id="Path_5" data-name="Path 5" d="M103.158,15.161C90.015,6.67,28.879-2.07,11.594,24.7,6.541,32.516,5.809,42.525,7.617,52.963c1.712-5.73,6.517-8.919,13.751-8.919a22.322,22.322,0,0,1,6.958,1.229c-.069.414-.98,5.495-1.077,6.02a25.053,25.053,0,0,0-5.481-1.146c-4.722,0-6.931,2.54-6.931,7.994,0,3.41.69,7.939,6.627,7.939a12.9,12.9,0,0,0,1.933-.166l.566,5.909a18.849,18.849,0,0,1-2.858.235,17.689,17.689,0,0,1-8.5-1.767c7.621,19.453,20.751,37.139,27.944,41.778-2.527-5.536-4.694-19.288-4.8-34.585-3.4-.746-7.386-2.789-7.386-8.27,0-4.183,1.919-6.365,3.769-8.491,1.574-1.795,3.051-3.493,3.051-6.172V51.886h2.6c.249-1.381.525-2.734.815-4.073A4.314,4.314,0,1,1,40.919,39.7c2.568-7.331,6.2-13.434,11.252-17.12,16.747-12.233,43.9,5.509,58.263,20.351,2.085-12.8-.193-23.195-7.276-27.765" transform="translate(263.398 32.519)" fill="#00add8"/>
  </g>
</svg>
