<svg xmlns="http://www.w3.org/2000/svg" width="202" height="48" viewBox="0 0 202 48">
  <path fill="#4164EA" fill-rule="evenodd" d="M186.906983,12.5508935 C197.122715,12.5508935 200.591586,18.6806446 201.030818,22.3011272 L201.030818,22.3011272 L201.066706,22.5931687 L200.779085,22.6540215 L192.839873,24.3199324 L192.507003,24.3901472 L192.457072,24.0541564 C192.313262,23.0854524 191.49461,19.9260469 186.978758,19.9260469 C184.632024,19.9260469 182.792917,21.2213798 182.792917,22.8729876 C182.792917,23.6604335 183.177278,25.049386 185.7539,25.4932995 L185.7539,25.4932995 L190.758655,26.4947705 C194.191638,27.1542694 196.880604,28.4402402 198.749358,30.3167955 C200.524491,32.099731 201.461989,34.3684489 201.461989,36.8777174 C201.461989,42.2356259 197.086827,48 187.480404,48 C182.767951,48 178.841124,46.7046672 176.125632,44.2513104 C174.125551,42.4467904 172.770926,39.9528651 172.498909,37.5809055 L172.498909,37.5809055 L172.464581,37.2904243 L172.751942,37.2308718 L180.907,35.5621003 L181.259894,35.4918855 L181.2898,35.8512812 C181.577161,39.3263931 184.764652,40.5590528 187.408629,40.5590528 C190.038303,40.5590528 191.738281,39.4012889 191.738281,37.6121121 C191.738281,36.1560654 190.54931,35.1839806 188.199195,34.7231636 L188.199195,34.7231636 L183.552277,33.7245532 C180.217854,33.0356681 177.642792,31.7606196 175.900425,29.9293139 C174.281844,28.2277755 173.425484,26.041755 173.425484,23.6073823 C173.425484,17.4071564 179.347451,12.5508935 186.906983,12.5508935 Z M159.482413,4.88239836 L159.482413,13.6761505 L166.741842,13.6761505 L166.741842,21.9700774 L159.482413,21.9700774 L159.482413,33.5828234 C159.482413,36.9640556 160.885669,38.3657508 163.437326,38.3657508 C164.743581,38.3657508 166.713756,37.9891915 168.171623,37.6625627 L168.171623,37.6625627 L168.171623,46.4565749 C166.719997,46.9189523 165.157588,47.2705464 163.482576,47.4736491 C162.36538,47.6096578 161.201115,47.6814329 159.993421,47.6814329 C153.038516,47.6814329 148.763475,43.4703659 148.763475,35.4312927 L148.763475,35.4312927 L148.763475,21.9700774 L143.085179,21.9700774 L143.085179,13.6761505 L148.315141,13.6761505 C149.468224,13.6761505 150.404161,12.7433341 150.407282,11.5886909 L150.407282,11.5886909 L150.422885,4.88239836 L159.482413,4.88239836 Z M82.3661864,12.5276706 C92.8289701,12.5276706 100.421269,20.054436 100.421269,30.1999529 C100.421269,40.2172628 92.8289701,47.6813549 82.3661864,47.6813549 C72.0300493,47.6813549 64.4377502,40.2172628 64.4377502,30.1999529 C64.4377502,20.054436 72.0300493,12.5276706 82.3661864,12.5276706 Z M123.03233,12.5276706 C133.495113,12.5276706 141.087413,20.054436 141.087413,30.1999529 C141.087413,40.2172628 133.495113,47.6813549 123.03233,47.6813549 C112.696193,47.6813549 105.103894,40.2172628 105.103894,30.1999529 C105.103894,20.054436 112.696193,12.5276706 123.03233,12.5276706 Z M65.0433398,0 L70.0028443,8.42369424 C62.6214496,12.6722091 58.1183412,20.8270067 58.0931159,30.3036627 C58.0915555,30.9301347 58.0634696,30.9004884 58.0634696,30.9004884 L58.0610576,31.252291 C57.9276544,40.9469127 52.2654339,47.4259291 42.3054506,47.4259291 C36.5631811,47.4259291 33.3725691,45.4476924 31.2037123,41.8116066 C29.0348555,45.4476924 25.0802025,47.4259291 19.5925267,47.4259291 C9.89534421,47.4259291 5.42968363,41.7476331 5.42968363,32.6241315 L5.42968363,32.6241315 L5.41876133,24.6019618 C5.417201,23.40675 4.44693664,22.437786 3.25146484,22.437786 L3.25146484,22.437786 L1.42108547e-14,22.437786 L1.42108547e-14,13.4440517 L8.04531454,13.4440517 C13.9142307,13.4440517 16.147061,17.144111 16.147061,22.6926396 L16.147061,22.6926396 L16.147061,31.0286954 C16.147061,35.5583295 17.5503165,37.6632128 20.8691356,37.6632128 C24.1863943,37.6632128 26.1646309,35.3677093 26.1646309,30.5816613 L26.1646309,30.5816613 L26.1646309,13.4284484 L36.8820083,13.4284484 L36.8820083,31.2193156 C36.8820083,35.1131157 38.0304102,37.6632128 41.6038228,37.6632128 C45.4320891,37.6632128 47.3445319,34.5381346 47.3445319,30.0082405 L47.3445319,30.0082405 L47.3507733,29.8927762 C47.4836612,16.5769315 54.3587293,5.63122608 65.0433398,0 L65.0433398,0 Z M82.3661864,22.2888266 C77.8362923,22.2888266 74.7738873,25.7967054 74.7738873,30.1999529 C74.7738873,34.4749933 77.8362923,37.9828721 82.3661864,37.9828721 C87.0224671,37.9828721 90.0851322,34.4749933 90.0851322,30.1999529 C90.0851322,25.7967054 87.0224671,22.2888266 82.3661864,22.2888266 Z M123.03233,22.2888266 C118.502696,22.2888266 115.440031,25.7967054 115.440031,30.1999529 C115.440031,34.4749933 118.502696,37.9828721 123.03233,37.9828721 C127.68861,37.9828721 130.751275,34.4749933 130.751275,30.1999529 C130.751275,25.7967054 127.68861,22.2888266 123.03233,22.2888266 Z"/>
</svg>
